<?xml version="1.0" encoding="UTF-8"?>
<svg version="1.1" xmlns="http://www.w3.org/2000/svg" width="180" height="180">
    <path
        d="M0 0 C0.86322876 -0.0071553 1.72645752 -0.01431061 2.61584473 -0.02168274 C3.55508789 -0.02437164 4.49433105 -0.02706055 5.46203613 -0.02983093 C6.45771606 -0.03640213 7.453396 -0.04297333 8.47924805 -0.04974365 C11.77624592 -0.06946072 15.07319818 -0.08113825 18.37023926 -0.09111023 C20.06334984 -0.09722352 20.06334984 -0.09722352 21.79066467 -0.10346031 C27.76966163 -0.12431827 33.74863567 -0.13861894 39.72766113 -0.147995 C45.88307575 -0.15903455 52.03812641 -0.19340726 58.19341278 -0.23316669 C62.9428776 -0.25940412 67.69225682 -0.26769337 72.44178772 -0.27127647 C74.70942125 -0.27612714 76.97705135 -0.28769736 79.24461365 -0.30631447 C96.5503745 -0.43952066 109.94938061 0.44060736 123.33898926 12.58467102 C124.10211426 13.43029602 124.86523926 14.27592102 125.65148926 15.14717102 C126.13230957 15.62412415 126.61312988 16.10107727 127.10852051 16.59248352 C133.52762171 23.32035161 137.74521134 33.14462423 137.79866028 42.49568176 C137.80939323 43.7905249 137.80939323 43.7905249 137.82034302 45.11152649 C137.82303192 46.05076965 137.82572083 46.99001282 137.82849121 47.9577179 C137.83506241 48.95339783 137.84163361 49.94907776 137.84840393 50.97492981 C137.868121 54.27192768 137.87979853 57.56887995 137.88977051 60.86592102 C137.89384604 61.99466141 137.89792156 63.12340179 137.90212059 64.28634644 C137.92297855 70.26534339 137.93727922 76.24431744 137.94665527 82.2233429 C137.95769483 88.37875752 137.99206754 94.53380817 138.03182697 100.68909454 C138.0580644 105.43855936 138.06635365 110.18793858 138.06993675 114.93746948 C138.07478742 117.20510301 138.08635764 119.47273311 138.10497475 121.74029541 C138.23818094 139.04605626 137.35805292 152.44506237 125.21398926 165.83467102 C124.36836426 166.59779602 123.52273926 167.36092102 122.65148926 168.14717102 C122.17453613 168.62799133 121.69758301 169.10881165 121.20617676 169.60420227 C114.47830867 176.02330347 104.65403605 180.2408931 95.30297852 180.29434204 C94.43974976 180.30149734 93.576521 180.30865265 92.68713379 180.31602478 C91.74789062 180.31871368 90.80864746 180.32140259 89.84094238 180.32417297 C88.84526245 180.33074417 87.84958252 180.33731537 86.82373047 180.34408569 C83.52673259 180.36380276 80.22978033 180.37548029 76.93273926 180.38545227 C75.80399887 180.3895278 74.67525848 180.39360332 73.51231384 180.39780235 C67.53331689 180.41866031 61.55434284 180.43296098 55.57531738 180.44233704 C49.41990276 180.45337659 43.2648521 180.48774931 37.10956573 180.52750874 C32.36010092 180.55374616 27.6107217 180.56203541 22.8611908 180.56561852 C20.59355726 180.57046918 18.32592716 180.5820394 16.05836487 180.60065651 C-1.24739598 180.7338627 -14.64640209 179.85373468 -28.03601074 167.70967102 C-28.79913574 166.86404602 -29.56226074 166.01842102 -30.34851074 165.14717102 C-30.82933105 164.6702179 -31.31015137 164.19326477 -31.80554199 163.70185852 C-38.23925622 156.95867449 -42.4331619 147.13435379 -42.50241089 137.76742554 C-42.51101135 136.89722778 -42.51961182 136.02703003 -42.5284729 135.13046265 C-42.53273285 134.18343979 -42.5369928 133.23641693 -42.54138184 132.26069641 C-42.54955933 131.2568692 -42.55773682 130.25304199 -42.56616211 129.21879578 C-42.59098606 125.8941456 -42.60752895 122.5695382 -42.62194824 119.24482727 C-42.62727192 118.10630247 -42.6325956 116.96777767 -42.6380806 115.79475212 C-42.66480543 109.7627365 -42.68417825 103.73074148 -42.6986084 97.69868469 C-42.71191956 92.72193407 -42.73972175 87.74559617 -42.78063965 82.76899719 C-42.83014585 76.74724936 -42.85475221 70.72587443 -42.86183548 64.70393181 C-42.8685197 62.41757067 -42.88366721 60.13121693 -42.90772629 57.84497261 C-43.08134376 40.34116608 -41.74281102 26.67972336 -29.34851074 13.14717102 C-21.24889133 5.94481483 -11.10130465 0.06345304 0 0 Z "
        fill="#000000" transform="translate(42.3485107421875,-0.1471710205078125)" />
    <path
        d="M0 0 C2.31 0 4.62 0 7 0 C7.00142502 0.69633545 7.00285004 1.3926709 7.00431824 2.11010742 C7.02221303 8.70076337 7.06401654 15.29079508 7.13209057 21.88113403 C7.16625407 25.26866352 7.19145368 28.65574718 7.19555664 32.04345703 C7.20486595 35.94620435 7.24590574 39.84754737 7.29296875 43.75 C7.2890361 44.95551514 7.28510345 46.16103027 7.28105164 47.40307617 C7.40283828 54.47463126 8.15008177 59.62717968 13 65 C19.97371152 70.43949498 26.38044158 70.78267217 35 70 C37.98934547 68.95646324 40.26870254 67.64908526 43 66 C43.66 66 44.32 66 45 66 C49.51474461 57.66508688 50.45916839 50.78067172 50.51171875 41.40625 C50.52966995 40.21898315 50.54762115 39.03171631 50.56611633 37.80847168 C50.62003529 34.03901658 50.6540569 30.26968681 50.6875 26.5 C50.72068921 23.93487847 50.75518035 21.36977343 50.79101562 18.8046875 C50.87575135 12.53657074 50.94417898 6.26843739 51 0 C53.31 0 55.62 0 58 0 C58.10199058 7.63131201 58.17171246 15.26244618 58.21972656 22.89428711 C58.23975721 25.48680185 58.26698967 28.07927188 58.30175781 30.67163086 C58.35065141 34.41271033 58.37305539 38.1531889 58.390625 41.89453125 C58.41127014 43.04081497 58.43191528 44.18709869 58.45318604 45.36811829 C58.45568914 54.48420908 57.04926757 62.94048934 50.8125 69.9375 C43.49470184 76.51405567 34.73325701 78.38220075 25.16796875 78.27734375 C17.19432675 77.57928138 10.26850066 73.99327027 5 68 C-0.21484169 60.34713167 -0.68033512 53.3934605 -0.48828125 44.3359375 C-0.47766914 42.4261058 -0.47766914 42.4261058 -0.46684265 40.47769165 C-0.44374526 37.12662693 -0.39899851 33.77733476 -0.34332275 30.42675781 C-0.2917582 26.99429467 -0.26925016 23.5616468 -0.24414062 20.12890625 C-0.18924893 13.41879004 -0.10575465 6.70949711 0 0 Z "
        fill="#F5F5F5" transform="translate(48,52)" />
    <path
        d="M0 0 C2.31 0 4.62 0 7 0 C7 25.41 7 50.82 7 77 C4.69 77 2.38 77 0 77 C0 51.59 0 26.18 0 0 Z "
        fill="#F7F7F7" transform="translate(126,52)" />
</svg>